<svg width="333" height="287" viewBox="0 0 333 287" fill="none" xmlns="http://www.w3.org/2000/svg">
<g filter="url(#filter0_d_1999_14)">
<path d="M189.833 262.75V237.312C189.833 235.257 190.219 233.268 190.99 231.346C191.76 229.424 192.917 227.687 194.458 226.135L275.01 145.969C277.323 143.656 279.892 141.986 282.719 140.958C285.545 139.93 288.371 139.417 291.198 139.417C294.281 139.417 297.236 139.997 300.062 141.159C302.889 142.32 305.458 144.052 307.771 146.354L322.031 160.614C324.087 162.927 325.695 165.496 326.857 168.323C328.018 171.149 328.594 173.976 328.583 176.802C328.583 179.628 328.069 182.522 327.042 185.482C326.014 188.442 324.344 191.073 322.031 193.375L241.865 273.542C240.323 275.083 238.591 276.239 236.669 277.01C234.747 277.781 232.753 278.167 230.687 278.167H205.25C200.882 278.167 197.223 276.692 194.273 273.742C191.324 270.792 189.844 267.128 189.833 262.75ZM291.198 191.833L305.458 176.802L291.198 162.542L276.552 177.187L291.198 191.833ZM35.6666 247.333C27.1874 247.333 19.9313 244.317 13.8983 238.284C7.8652 232.251 4.84353 224.989 4.83325 216.5V31.4998C4.83325 23.0207 7.85492 15.7646 13.8983 9.7315C19.9416 3.69845 27.1977 0.676782 35.6666 0.666504H115.448C119.559 0.666504 123.48 1.43734 127.211 2.97901C130.942 4.52067 134.215 6.7047 137.031 9.53108L159 31.4998H282.333C290.812 31.4998 298.074 34.5215 304.117 40.5648C310.16 46.6082 313.177 53.8643 313.167 62.3332V94.3228C313.167 98.9478 311.301 102.673 307.57 105.5C303.839 108.326 299.538 109.354 294.667 108.583H290.427C283.233 108.583 276.49 109.868 270.2 112.437C263.91 115.007 258.191 118.861 253.042 124L167.865 209.177C165.038 212.003 162.854 215.282 161.312 219.013C159.771 222.744 159 226.659 159 230.76V231.917C159 236.285 157.52 239.949 154.56 242.909C151.6 245.869 147.941 247.343 143.583 247.333H35.6666Z" fill="white"/>
</g>
<defs>
<filter id="filter0_d_1999_14" x="0.833252" y="0.666504" width="331.75" height="285.5" filterUnits="userSpaceOnUse" color-interpolation-filters="sRGB">
<feFlood flood-opacity="0" result="BackgroundImageFix"/>
<feColorMatrix in="SourceAlpha" type="matrix" values="0 0 0 0 0 0 0 0 0 0 0 0 0 0 0 0 0 0 127 0" result="hardAlpha"/>
<feOffset dy="4"/>
<feGaussianBlur stdDeviation="2"/>
<feComposite in2="hardAlpha" operator="out"/>
<feColorMatrix type="matrix" values="0 0 0 0 0 0 0 0 0 0 0 0 0 0 0 0 0 0 0.25 0"/>
<feBlend mode="normal" in2="BackgroundImageFix" result="effect1_dropShadow_1999_14"/>
<feBlend mode="normal" in="SourceGraphic" in2="effect1_dropShadow_1999_14" result="shape"/>
</filter>
</defs>
</svg>
