<svg width="200" height="200" viewBox="0 0 200 200" fill="none" xmlns="http://www.w3.org/2000/svg">
<g id="Contract">
<path id="Vector" d="M191.589 77.0002L189.189 74.6002C190.742 71.374 191.274 67.7512 190.715 64.2147C190.156 60.6783 188.533 57.3961 186.061 54.8058C184.375 53.1275 182.35 51.8283 180.122 50.9948C177.893 50.1614 175.513 49.8128 173.139 49.9724C170.908 50.103 168.718 50.6238 166.667 51.5113V11.1113H11.1113V188.889H166.667V99.0002L183.834 81.8335L185.3 83.2947C185.492 83.4861 185.644 83.7134 185.748 83.9636C185.851 84.2139 185.905 84.4821 185.905 84.753C185.905 85.0239 185.851 85.2921 185.748 85.5423C185.644 85.7926 185.492 86.0199 185.3 86.2113L172.228 99.2891C171.394 100.122 170.925 101.253 170.925 102.432C170.924 103.61 171.392 104.741 172.225 105.575C173.058 106.409 174.189 106.878 175.368 106.878C176.547 106.879 177.677 106.411 178.511 105.578L191.589 92.5002C193.642 90.4432 194.794 87.6561 194.794 84.7502C194.794 81.8444 193.642 79.0572 191.589 77.0002ZM44.4447 45.5558H133.345V54.4447H44.4447V45.5558ZM44.4447 67.778H133.345V76.6669H44.4447V67.778ZM44.4447 90.0002H102.778V98.8891H44.4447V90.0002ZM126.622 166.089H83.2669C78.2558 166.089 73.5669 165.617 71.078 161.511C68.528 157.317 71.0613 152.445 72.9113 148.878C73.2391 148.25 72.5113 147.472 71.678 148.334C69.2336 150.845 65.3447 155.367 62.2169 159C58.9113 162.845 57.6002 164.35 56.9002 164.984C56.1596 165.844 55.1538 166.433 54.0412 166.658C52.9286 166.884 51.7727 166.732 50.7558 166.228C49.8427 165.701 49.1274 164.889 48.7191 163.917C48.3108 162.945 48.232 161.866 48.4947 160.845C48.728 159.456 52.6947 144 56.2891 130.106C51.5113 138.589 36.3447 163.995 35.6336 165.189C35.1046 166.075 34.2452 166.715 33.2445 166.968C32.2438 167.221 31.1837 167.065 30.2974 166.536C29.4112 166.007 28.7713 165.148 28.5187 164.147C28.266 163.147 28.4213 162.086 28.9502 161.2C29.1447 160.884 48.1447 129.045 50.5391 124.422C51.3197 122.575 52.7725 121.092 54.6039 120.275C56.4354 119.457 58.509 119.365 60.4058 120.017C62.1179 120.713 63.5026 122.032 64.2809 123.708C65.0592 125.384 65.1733 127.293 64.6002 129.05C62.6002 136.761 60.5613 144.672 58.9891 150.828C61.528 147.895 64.1836 144.884 66.1002 142.911C67.5753 141.138 69.5909 139.897 71.8384 139.378C74.086 138.859 76.4416 139.092 78.5447 140.039C79.8515 140.704 80.8982 141.788 81.5183 143.117C82.1384 144.445 82.2963 145.944 81.9669 147.372C81.4362 149.142 80.7134 150.849 79.8113 152.461C78.328 155.545 79.0336 158.306 83.2669 158.306H126.617C127.648 158.306 128.637 158.715 129.367 159.445C130.096 160.174 130.506 161.163 130.506 162.195C130.506 163.226 130.096 164.215 129.367 164.945C128.637 165.674 127.648 166.084 126.617 166.084L126.622 166.089ZM115.061 138.034L100.595 141.85C100.384 141.91 100.161 141.911 99.9502 141.855C99.7389 141.798 99.5469 141.685 99.3947 141.528C99.2351 141.377 99.1201 141.186 99.0622 140.974C99.0044 140.762 99.006 140.539 99.0669 140.328L102.756 125.889L139.367 89.278L151.589 101.5L115.061 138.034ZM178.761 74.328L157.872 95.2169L145.65 82.9947L166.539 62.1058C168.407 60.185 170.921 59.0251 173.595 58.8502L174.095 58.8335C175.144 58.8148 176.186 59.0051 177.161 59.3933C178.136 59.7815 179.023 60.3598 179.772 61.0947C181.378 62.9901 182.172 65.4419 181.983 67.9189C181.794 70.3958 180.636 72.6985 178.761 74.328Z" fill="#5B6D52"/>
</g>
</svg>
