<svg width="60" height="60" viewBox="0 0 60 60" fill="none" xmlns="http://www.w3.org/2000/svg">
<path d="M58.125 28.2202C56.7158 26.4159 54.914 24.9564 52.8564 23.9526C50.7987 22.9488 48.5394 22.4271 46.25 22.4271C43.9606 22.4271 41.7013 22.9488 39.6436 23.9526C37.586 24.9564 35.7842 26.4159 34.375 28.2202M46.25 18.8452C48.4878 18.8452 50.6339 17.9563 52.2162 16.3739C53.7986 14.7916 54.6875 12.6455 54.6875 10.4077C54.6875 8.16995 53.7986 6.02384 52.2162 4.4415C50.6339 2.85916 48.4878 1.97021 46.25 1.97021C44.0122 1.97021 41.8661 2.85916 40.2838 4.4415C38.7014 6.02384 37.8125 8.16995 37.8125 10.4077C37.8125 12.6455 38.7014 14.7916 40.2838 16.3739C41.8661 17.9563 44.0122 18.8452 46.25 18.8452Z" stroke="#F8F8F8" stroke-width="1.5" stroke-linecap="round" stroke-linejoin="round"/>
<path d="M54.6876 10.6875C53.1635 11.1249 51.5856 11.3462 50.0001 11.345C45.7693 11.3503 41.6918 9.76142 38.5801 6.89502M25.6226 57.595C24.2137 55.7903 22.4119 54.3304 20.3543 53.3263C18.2966 52.3222 16.0371 51.8003 13.7476 51.8003C11.458 51.8003 9.19852 52.3222 7.14086 53.3263C5.08319 54.3304 3.28146 55.7903 1.87256 57.595M13.7501 48.22C14.8581 48.22 15.9553 48.0018 16.979 47.5778C18.0026 47.1537 18.9328 46.5322 19.7163 45.7487C20.4998 44.9652 21.1213 44.0351 21.5453 43.0114C21.9693 41.9877 22.1876 40.8905 22.1876 39.7825C22.1876 38.6745 21.9693 37.5773 21.5453 36.5536C21.1213 35.5299 20.4998 34.5998 19.7163 33.8163C18.9328 33.0328 18.0026 32.4113 16.979 31.9873C15.9553 31.5633 14.8581 31.345 13.7501 31.345C11.5123 31.345 9.36618 32.234 7.78385 33.8163C6.20151 35.3986 5.31256 37.5448 5.31256 39.7825C5.31256 42.0203 6.20151 44.1664 7.78385 45.7487C9.36618 47.3311 11.5123 48.22 13.7501 48.22Z" stroke="#F8F8F8" stroke-width="1.5" stroke-linecap="round" stroke-linejoin="round"/>
<path d="M22.1875 40.0603C19.4029 40.862 16.459 40.9345 13.6383 40.2708C10.8176 39.6071 8.21492 38.2295 6.07999 36.2703M13.1775 24.9053C16.1612 24.9053 19.0227 23.72 21.1324 21.6102C23.2422 19.5004 24.4275 16.639 24.4275 13.6553C24.4275 10.6716 23.2422 7.81011 21.1324 5.70032C19.0227 3.59054 16.1612 2.40527 13.1775 2.40527C10.1938 2.40527 7.33232 3.59054 5.22254 5.70032C3.11275 7.81011 1.92749 10.6716 1.92749 13.6553C1.92749 16.639 3.11275 19.5004 5.22254 21.6102C7.33232 23.72 10.1938 24.9053 13.1775 24.9053Z" stroke="#F8F8F8" stroke-width="1.5" stroke-linecap="round" stroke-linejoin="round"/>
<path d="M8.67749 14.7803L11.115 17.2153C11.2304 17.3307 11.3696 17.4197 11.5228 17.4759C11.676 17.5322 11.8397 17.5545 12.0024 17.5411C12.1651 17.5278 12.323 17.4793 12.465 17.3988C12.6071 17.3184 12.7299 17.208 12.825 17.0753L17.6775 10.2803" stroke="#F8F8F8" stroke-width="1.5" stroke-linecap="round" stroke-linejoin="round"/>
<path d="M31.25 49.4702C31.0014 49.4702 30.7629 49.3714 30.5871 49.1956C30.4113 49.0198 30.3125 48.7814 30.3125 48.5327C30.3125 48.2841 30.4113 48.0456 30.5871 47.8698C30.7629 47.694 31.0014 47.5952 31.25 47.5952M31.25 49.4702C31.4986 49.4702 31.7371 49.3714 31.9129 49.1956C32.0887 49.0198 32.1875 48.7814 32.1875 48.5327C32.1875 48.2841 32.0887 48.0456 31.9129 47.8698C31.7371 47.694 31.4986 47.5952 31.25 47.5952M38.75 42.2827C38.5014 42.2827 38.2629 42.1839 38.0871 42.0081C37.9113 41.8323 37.8125 41.5939 37.8125 41.3452C37.8125 41.0966 37.9113 40.8581 38.0871 40.6823C38.2629 40.5065 38.5014 40.4077 38.75 40.4077M38.75 42.2827C38.9986 42.2827 39.2371 42.1839 39.4129 42.0081C39.5887 41.8323 39.6875 41.5939 39.6875 41.3452C39.6875 41.0966 39.5887 40.8581 39.4129 40.6823C39.2371 40.5065 38.9986 40.4077 38.75 40.4077M46.25 35.0952C46.0014 35.0952 45.7629 34.9964 45.5871 34.8206C45.4113 34.6448 45.3125 34.4064 45.3125 34.1577C45.3125 33.9091 45.4113 33.6706 45.5871 33.4948C45.7629 33.319 46.0014 33.2202 46.25 33.2202M46.25 35.0952C46.4986 35.0952 46.7371 34.9964 46.9129 34.8206C47.0887 34.6448 47.1875 34.4064 47.1875 34.1577C47.1875 33.9091 47.0887 33.6706 46.9129 33.4948C46.7371 33.319 46.4986 33.2202 46.25 33.2202" stroke="#F8F8F8" stroke-width="1.5"/>
</svg>
