<svg width="25" height="25" viewBox="0 0 25 25" fill="none" xmlns="http://www.w3.org/2000/svg">
<path d="M8.59375 11.7188H16.4062C16.6135 11.7188 16.8122 11.8011 16.9587 11.9476C17.1052 12.0941 17.1875 12.2928 17.1875 12.5C17.1875 12.7072 17.1052 12.9059 16.9587 13.0524C16.8122 13.1989 16.6135 13.2812 16.4062 13.2812H8.59375C8.38655 13.2812 8.18784 13.1989 8.04132 13.0524C7.89481 12.9059 7.8125 12.7072 7.8125 12.5C7.8125 12.2928 7.89481 12.0941 8.04132 11.9476C8.18784 11.8011 8.38655 11.7188 8.59375 11.7188Z" fill="#FF0000"/>
<path d="M12.5 21.875C13.7311 21.875 14.9502 21.6325 16.0877 21.1614C17.2251 20.6902 18.2586 19.9997 19.1291 19.1291C19.9997 18.2586 20.6902 17.2251 21.1614 16.0877C21.6325 14.9502 21.875 13.7311 21.875 12.5C21.875 11.2689 21.6325 10.0498 21.1614 8.91234C20.6902 7.77492 19.9997 6.74142 19.1291 5.87087C18.2586 5.00032 17.2251 4.30977 16.0877 3.83863C14.9502 3.36749 13.7311 3.125 12.5 3.125C10.0136 3.125 7.62903 4.11272 5.87087 5.87087C4.11272 7.62903 3.125 10.0136 3.125 12.5C3.125 14.9864 4.11272 17.371 5.87087 19.1291C7.62903 20.8873 10.0136 21.875 12.5 21.875ZM12.5 23.4375C9.59919 23.4375 6.8172 22.2852 4.76602 20.234C2.71484 18.1828 1.5625 15.4008 1.5625 12.5C1.5625 9.59919 2.71484 6.8172 4.76602 4.76602C6.8172 2.71484 9.59919 1.5625 12.5 1.5625C15.4008 1.5625 18.1828 2.71484 20.234 4.76602C22.2852 6.8172 23.4375 9.59919 23.4375 12.5C23.4375 15.4008 22.2852 18.1828 20.234 20.234C18.1828 22.2852 15.4008 23.4375 12.5 23.4375Z" fill="#FF0000"/>
</svg>
