<svg width="60" height="60" viewBox="0 0 60 60" fill="none" xmlns="http://www.w3.org/2000/svg">
<g id="fluent:box-multiple-search-20-regular">
<path id="Vector" d="M34.269 7.13414C36.3487 6.33419 38.6513 6.33419 40.731 7.13414L51.114 11.1271C52.854 11.7961 54 13.4671 54 15.3271V38.6671C53.9992 38.8881 53.9822 39.1087 53.949 39.3271C53.7208 36.647 52.6935 34.097 51 32.0071V15.3301C51.0001 15.0266 50.9081 14.7302 50.7361 14.48C50.5642 14.2299 50.3204 14.0378 50.037 13.9291L39.654 9.93614C38.2675 9.40284 36.7325 9.40284 35.346 9.93614L24.96 13.9261C24.6767 14.0355 24.4332 14.2282 24.2618 14.4789C24.0904 14.7296 23.9991 15.0264 24 15.3301V18.6301C23.0039 18.5047 21.9961 18.5047 21 18.6301V15.3301C21.0001 14.4204 21.276 13.5321 21.7912 12.7823C22.3064 12.0325 23.0368 11.4564 23.886 11.1301L34.269 7.13414ZM37.8 27.2671C37.3326 26.7632 36.7558 26.3732 36.114 26.1271L25.731 22.1341C23.6513 21.3342 21.3487 21.3342 19.269 22.1341L8.886 26.1271C8.03678 26.4534 7.30641 27.0295 6.79119 27.7793C6.27598 28.5291 6.00012 29.4174 6 30.3271V44.6671C6.00012 45.5769 6.27598 46.4652 6.79119 47.215C7.30641 47.9648 8.03678 48.5408 8.886 48.8671L19.266 52.8601C21.3466 53.6609 23.6504 53.6609 25.731 52.8601L31.563 50.6161C30.759 49.9064 30.0419 49.1038 29.427 48.2251L24.654 50.0611C23.2675 50.5944 21.7325 50.5944 20.346 50.0611L9.96 46.0681C9.67714 45.959 9.434 45.7667 9.26262 45.5166C9.09125 45.2665 8.99968 44.9703 9 44.6671V30.3271C8.99968 30.024 9.09125 29.7278 9.26262 29.4777C9.434 29.2276 9.67714 29.0353 9.96 28.9261L20.346 24.9331C21.7325 24.3998 23.2675 24.3998 24.654 24.9331L34.146 28.5841C35.2936 27.9701 36.5245 27.5264 37.8 27.2671ZM32.091 29.9371C31.8362 29.8984 31.5758 29.9263 31.335 30.0181L22.5 33.4201L13.662 30.0211C13.2904 29.8783 12.8773 29.889 12.5136 30.0507C12.1499 30.2125 11.8653 30.5121 11.7225 30.8836C11.5797 31.2552 11.5903 31.6683 11.7521 32.032C11.9138 32.3957 12.2134 32.6803 12.585 32.8231L21 36.0541V43.5241C21 43.922 21.158 44.3035 21.4393 44.5848C21.7206 44.8661 22.1022 45.0241 22.5 45.0241C22.8978 45.0241 23.2794 44.8661 23.5607 44.5848C23.842 44.3035 24 43.922 24 43.5241V36.0541L28.488 34.3261C29.3654 32.6241 30.5933 31.1273 32.091 29.9341M46.335 15.0151C46.5199 14.9386 46.7183 14.8998 46.9185 14.9012C47.1186 14.9025 47.3165 14.9438 47.5004 15.0228C47.6843 15.1017 47.8506 15.2167 47.9894 15.3609C48.1282 15.5051 48.2367 15.6757 48.3086 15.8625C48.3805 16.0493 48.4142 16.2485 48.4079 16.4486C48.4015 16.6487 48.3552 16.8454 48.2717 17.0273C48.1881 17.2092 48.069 17.3725 47.9214 17.5076C47.7737 17.6428 47.6005 17.747 47.412 17.8141L39.114 21.0061C38.0741 21.4061 36.9229 21.4061 35.883 21.0061L27.585 17.8201C27.2138 17.6769 26.9148 17.3921 26.7536 17.0284C26.5924 16.6647 26.5823 16.2518 26.7255 15.8806C26.8687 15.5095 27.1535 15.2104 27.5172 15.0492C27.881 14.888 28.2938 14.8779 28.665 15.0211L36.96 18.2101C37.3075 18.3442 37.6925 18.3442 38.04 18.2101L46.335 15.0151ZM48.909 46.7851C50.4987 44.6592 51.2242 42.0099 50.9394 39.3706C50.6546 36.7313 49.3806 34.2979 47.374 32.56C45.3673 30.8221 42.7768 29.9088 40.1239 30.0039C37.4709 30.099 34.9525 31.1954 33.0754 33.0725C31.1983 34.9496 30.1018 37.4681 30.0067 40.121C29.9116 42.7739 30.8249 45.3644 32.5628 47.3711C34.3007 49.3778 36.7342 50.6517 39.3735 50.9365C42.0128 51.2213 44.662 50.4959 46.788 48.9061L54.438 56.5561C54.7193 56.8378 55.1009 56.9962 55.4989 56.9965C55.897 56.9968 56.2788 56.8389 56.5605 56.5576C56.8422 56.2764 57.0006 55.8947 57.0008 55.4967C57.0011 55.0987 56.8433 54.7168 56.562 54.4351L48.909 46.7851ZM48 40.4941C48 42.4833 47.2098 44.3909 45.8033 45.7974C44.3968 47.204 42.4891 47.9941 40.5 47.9941C38.5109 47.9941 36.6032 47.204 35.1967 45.7974C33.7902 44.3909 33 42.4833 33 40.4941C33 38.505 33.7902 36.5974 35.1967 35.1908C36.6032 33.7843 38.5109 32.9941 40.5 32.9941C42.4891 32.9941 44.3968 33.7843 45.8033 35.1908C47.2098 36.5974 48 38.505 48 40.4941Z" fill="#F8F8F8"/>
</g>
</svg>
