<svg width="370" height="370" viewBox="0 0 370 370" fill="none" xmlns="http://www.w3.org/2000/svg">
<path d="M333 106.375C333 102.695 331.538 99.166 328.936 96.5639C326.334 93.9618 322.805 92.5 319.125 92.5H50.875C47.1951 92.5 43.666 93.9618 41.0639 96.5639C38.4618 99.166 37 102.695 37 106.375C37 110.055 38.4618 113.584 41.0639 116.186C43.666 118.788 47.1951 120.25 50.875 120.25H319.125C322.805 120.25 326.334 118.788 328.936 116.186C331.538 113.584 333 110.055 333 106.375ZM333 161.875C333 158.195 331.538 154.666 328.936 152.064C326.334 149.462 322.805 148 319.125 148H50.875C47.1951 148 43.666 149.462 41.0639 152.064C38.4618 154.666 37 158.195 37 161.875C37 165.555 38.4618 169.084 41.0639 171.686C43.666 174.288 47.1951 175.75 50.875 175.75H225.811C239.123 169.637 253.602 166.481 268.25 166.5C282.898 166.481 297.377 169.637 310.689 175.75H319.125C322.805 175.75 326.334 174.288 328.936 171.686C331.538 169.084 333 165.555 333 161.875ZM166.907 259C166.078 268.265 166.508 277.6 168.183 286.75H50.875C47.1951 286.75 43.666 285.288 41.0639 282.686C38.4618 280.084 37 276.555 37 272.875C37 269.195 38.4618 265.666 41.0639 263.064C43.666 260.462 47.1951 259 50.875 259H166.907ZM189.754 203.5C182.876 211.825 177.368 221.192 173.438 231.25H50.875C47.1951 231.25 43.666 229.788 41.0639 227.186C38.4618 224.584 37 221.055 37 217.375C37 213.695 38.4618 210.166 41.0639 207.564C43.666 204.962 47.1951 203.5 50.875 203.5H189.754ZM351.5 268.25C351.5 246.171 342.729 224.996 327.117 209.383C311.504 193.771 290.329 185 268.25 185C246.171 185 224.996 193.771 209.383 209.383C193.771 224.996 185 246.171 185 268.25C185 290.329 193.771 311.504 209.383 327.117C224.996 342.729 246.171 351.5 268.25 351.5C290.329 351.5 311.504 342.729 327.117 327.117C342.729 311.504 351.5 290.329 351.5 268.25ZM305.25 231.25C306.921 229.646 309.133 228.728 311.448 228.676C313.763 228.624 316.014 229.442 317.755 230.97C319.496 232.497 320.601 234.622 320.851 236.924C321.101 239.226 320.479 241.539 319.107 243.404L317.996 244.663L253.025 312.002C251.378 313.57 249.211 314.477 246.938 314.548C244.665 314.62 242.446 313.852 240.703 312.391L239.464 311.152L214.674 280.719C213.202 278.929 212.455 276.652 212.582 274.339C212.708 272.025 213.699 269.843 215.357 268.224C217.015 266.605 219.22 265.668 221.536 265.598C223.853 265.527 226.111 266.328 227.865 267.843L229.03 269.027L247.511 291.727L305.25 231.25Z" fill="white"/>
</svg>
