<svg width="200" height="200" viewBox="0 0 200 200" fill="none" xmlns="http://www.w3.org/2000/svg">
<g id="fluent:phone-checkmark-16-regular">
<path id="Vector" d="M137.5 137.225V165.625C137.5 168.111 136.512 170.496 134.754 172.254C132.996 174.012 130.611 175 128.125 175H71.875C69.3886 175 67.004 174.012 65.2459 172.254C63.4877 170.496 62.5 168.111 62.5 165.625V34.375C62.5 31.8886 63.4877 29.504 65.2459 27.7459C67.004 25.9877 69.3886 25 71.875 25H78.2125C82.1365 20.2514 86.6766 16.0477 91.7125 12.5H71.875C66.0734 12.5 60.5094 14.8047 56.407 18.907C52.3047 23.0094 50 28.5734 50 34.375V165.625C50 177.7 59.8 187.5 71.875 187.5H128.125C133.927 187.5 139.491 185.195 143.593 181.093C147.695 176.991 150 171.427 150 165.625V134.913C145.914 136.068 141.729 136.843 137.5 137.225ZM81.25 156.25C81.25 154.592 81.9085 153.003 83.0806 151.831C84.2527 150.658 85.8424 150 87.5 150H112.5C114.158 150 115.747 150.658 116.919 151.831C118.092 153.003 118.75 154.592 118.75 156.25C118.75 157.908 118.092 159.497 116.919 160.669C115.747 161.842 114.158 162.5 112.5 162.5H87.5C85.8424 162.5 84.2527 161.842 83.0806 160.669C81.9085 159.497 81.25 157.908 81.25 156.25ZM131.25 125C146.168 125 160.476 119.074 171.025 108.525C181.574 97.9758 187.5 83.6684 187.5 68.75C187.5 53.8316 181.574 39.5242 171.025 28.9752C160.476 18.4263 146.168 12.5 131.25 12.5C116.332 12.5 102.024 18.4263 91.4752 28.9752C80.9263 39.5242 75 53.8316 75 68.75C75 83.6684 80.9263 97.9758 91.4752 108.525C102.024 119.074 116.332 125 131.25 125ZM160.675 54.425L123.175 91.925C122.594 92.507 121.905 92.9688 121.145 93.2839C120.386 93.599 119.572 93.7612 118.75 93.7612C117.928 93.7612 117.114 93.599 116.355 93.2839C115.595 92.9688 114.906 92.507 114.325 91.925L101.825 79.425C101.244 78.8439 100.783 78.154 100.468 77.3948C100.154 76.6356 99.9921 75.8218 99.9921 75C99.9921 74.1782 100.154 73.3644 100.468 72.6052C100.783 71.846 101.244 71.1561 101.825 70.575C102.999 69.4014 104.59 68.7421 106.25 68.7421C107.072 68.7421 107.886 68.904 108.645 69.2185C109.404 69.5329 110.094 69.9939 110.675 70.575L118.75 78.6625L151.825 45.575C152.999 44.4014 154.59 43.7421 156.25 43.7421C157.91 43.7421 159.501 44.4014 160.675 45.575C161.849 46.7486 162.508 48.3403 162.508 50C162.508 51.6597 161.849 53.2514 160.675 54.425Z" fill="#728B64"/>
</g>
</svg>
