<svg width="300" height="200" viewBox="0 0 300 200" fill="none" xmlns="http://www.w3.org/2000/svg">
<g id="Home">
<g id="mdi:car-key">
<path id="Vector" d="M237.5 58C230.417 58 225 63.4167 225 70.5C225 77.5833 230.417 83 237.5 83C242.917 83 247.5 79.6667 249.167 74.6667H258.333V83H266.667V74.6667H275V66.3333H249.167C247.5 61.3333 242.917 58 237.5 58ZM237.5 66.3333C240 66.3333 241.667 68 241.667 70.5C241.667 73 240 74.6667 237.5 74.6667C235 74.6667 233.333 73 233.333 70.5C233.333 68 235 66.3333 237.5 66.3333ZM227.083 91.3333C224.167 91.3333 222.083 93 221.25 95.5L212.5 120.5V153.833C212.5 156.333 214.167 158 216.667 158H220.833C223.333 158 225 156.333 225 153.833V149.667H275V153.833C275 156.333 276.667 158 279.167 158H283.333C285.833 158 287.5 156.333 287.5 153.833V120.5L278.75 95.5C277.917 93 275.417 91.3333 272.917 91.3333H227.083ZM227.083 97.5833H272.917L279.167 116.333H220.833L227.083 97.5833ZM227.083 124.667C230.417 124.667 233.333 127.583 233.333 130.917C233.333 134.25 230.417 137.167 227.083 137.167C223.75 137.167 220.833 134.25 220.833 130.917C220.833 127.583 223.75 124.667 227.083 124.667ZM272.917 124.667C276.25 124.667 279.167 127.583 279.167 130.917C279.167 134.25 276.25 137.167 272.917 137.167C269.583 137.167 266.667 134.25 266.667 130.917C266.667 127.583 269.583 124.667 272.917 124.667Z" fill="#5B6D52"/>
</g>
<g id="ph:warehouse-bold">
<path id="Vector_2" d="M187.5 140.625H184.375V47.7581L189.461 46.6721C190.682 46.4331 191.843 45.9534 192.877 45.2611C193.911 44.5687 194.797 43.6774 195.482 42.6392C196.168 41.6011 196.641 40.4368 196.872 39.2142C197.103 37.9916 197.089 36.7352 196.829 35.5183C196.57 34.3013 196.071 33.1482 195.362 32.126C194.652 31.1039 193.746 30.2332 192.697 29.5647C191.648 28.8962 190.476 28.4433 189.249 28.2324C188.023 28.0214 186.767 28.0567 185.555 28.3362L10.5547 65.8362C8.29518 66.3237 6.29542 67.6288 4.93946 69.5008C3.58349 71.3728 2.96692 73.6798 3.20814 75.9786C3.44937 78.2775 4.53138 80.4063 6.24639 81.956C7.96141 83.5058 10.1885 84.3674 12.5 84.3752C13.1641 84.3765 13.8266 84.3084 14.4766 84.1721L15.6328 83.9221V140.625H12.5C10.0136 140.625 7.62903 141.613 5.87087 143.371C4.11272 145.129 3.125 147.514 3.125 150C3.125 152.487 4.11272 154.871 5.87087 156.629C7.62903 158.388 10.0136 159.375 12.5 159.375H187.5C189.986 159.375 192.371 158.388 194.129 156.629C195.887 154.871 196.875 152.487 196.875 150C196.875 147.514 195.887 145.129 194.129 143.371C192.371 141.613 189.986 140.625 187.5 140.625ZM34.375 79.8987L165.625 51.7737V140.625H150V93.7502C150 91.2638 149.012 88.8793 147.254 87.1211C145.496 85.363 143.111 84.3752 140.625 84.3752H59.375C56.8886 84.3752 54.504 85.363 52.7459 87.1211C50.9877 88.8793 50 91.2638 50 93.7502V140.625H34.375V79.8987ZM131.25 112.5H68.75V103.125H131.25V112.5ZM68.75 131.25H131.25V140.625H68.75V131.25Z" fill="#5B6D52"/>
</g>
</g>
</svg>
