<svg width="25" height="25" viewBox="0 0 25 25" fill="none" xmlns="http://www.w3.org/2000/svg">
<path d="M3.125 13.5415C6.875 5.20817 18.125 5.20817 21.875 13.5415" stroke="white" stroke-width="1.5" stroke-linecap="round" stroke-linejoin="round"/>
<path d="M12.5 17.708C12.0896 17.708 11.6833 17.6272 11.3041 17.4701C10.925 17.3131 10.5805 17.0829 10.2903 16.7927C10.0001 16.5025 9.76992 16.158 9.61288 15.7789C9.45583 15.3998 9.375 14.9934 9.375 14.583C9.375 14.1726 9.45583 13.7663 9.61288 13.3871C9.76992 13.008 10.0001 12.6635 10.2903 12.3733C10.5805 12.0831 10.925 11.8529 11.3041 11.6959C11.6833 11.5388 12.0896 11.458 12.5 11.458C13.3288 11.458 14.1237 11.7872 14.7097 12.3733C15.2958 12.9593 15.625 13.7542 15.625 14.583C15.625 15.4118 15.2958 16.2067 14.7097 16.7927C14.1237 17.3788 13.3288 17.708 12.5 17.708Z" stroke="white" stroke-width="1.5" stroke-linecap="round" stroke-linejoin="round"/>
</svg>
