<svg width="254" height="254" viewBox="0 0 254 254" fill="none" xmlns="http://www.w3.org/2000/svg">
<g id="lets-icons:glasses">
<g id="Group">
<path id="Vector" d="M31.75 148.166V158.75C31.75 169.977 36.2101 180.745 44.1491 188.684C52.0882 196.623 62.8558 201.083 74.0833 201.083C82.504 201.083 90.5797 197.738 96.534 191.784C102.488 185.829 105.833 177.754 105.833 169.333V158.75C105.833 153.136 108.063 147.752 112.033 143.783C116.002 139.813 121.386 137.583 127 137.583C132.614 137.583 137.998 139.813 141.967 143.783C145.937 147.752 148.167 153.136 148.167 158.75V169.333C148.167 177.754 151.512 185.829 157.466 191.784C163.42 197.738 171.496 201.083 179.917 201.083C191.144 201.083 201.912 196.623 209.851 188.684C217.79 180.745 222.25 169.977 222.25 158.75V148.166" stroke="white" stroke-width="5" stroke-linecap="round"/>
<path id="Vector_2" d="M148.167 148.167H222.25L193.94 63.2353C191.823 56.8853 186.372 52.2286 179.779 51.128C177.192 50.6959 174.542 50.8328 172.013 51.529C169.484 52.2251 167.137 53.464 165.136 55.1592C163.134 56.8545 161.526 58.9655 160.423 61.3454C159.321 63.7252 158.75 66.3168 158.75 68.9397V74.0832M105.833 148.167H31.75L60.0604 63.2353C62.1771 56.8853 67.6275 52.2286 74.2209 51.128C76.808 50.6959 79.4582 50.8328 81.9871 51.529C84.516 52.2251 86.8628 53.464 88.8643 55.1592C90.8657 56.8545 92.4738 58.9655 93.5766 61.3454C94.6794 63.7252 95.2505 66.3168 95.25 68.9397V74.0832" stroke="white" stroke-width="5" stroke-linecap="round" stroke-linejoin="round"/>
</g>
</g>
</svg>
