<svg width="370" height="370" viewBox="0 0 370 370" fill="none" xmlns="http://www.w3.org/2000/svg">
<path d="M53.9583 208.125V238.958C53.9583 255.313 60.4553 270.998 72.0201 282.563C83.5848 294.128 99.27 300.625 115.625 300.625C127.891 300.625 139.655 295.752 148.329 287.078C157.002 278.405 161.875 266.641 161.875 254.375V215.833C161.875 209.7 164.311 203.818 168.648 199.481C172.985 195.144 178.867 192.708 185 192.708C191.133 192.708 197.015 195.144 201.352 199.481C205.689 203.818 208.125 209.7 208.125 215.833V254.375C208.125 266.641 212.998 278.405 221.671 287.078C230.345 295.752 242.109 300.625 254.375 300.625C270.73 300.625 286.415 294.128 297.98 282.563C309.545 270.998 316.042 255.313 316.042 238.958V208.125" stroke="white" stroke-width="5" stroke-linecap="round"/>
<path d="M161.875 208.125H53.9583L97.9883 76.0348C98.6933 73.9216 99.8077 71.968 101.268 70.2857C102.728 68.6033 104.505 67.2251 106.498 66.2298C109.084 64.9368 111.957 64.3262 114.845 64.4561C117.733 64.586 120.54 65.4521 122.999 66.972C125.459 68.492 127.488 70.6154 128.896 73.1406C130.303 75.6658 131.042 78.5088 131.042 81.3998V84.7915M208.125 208.125H316.042L272.012 76.0348C271.307 73.9216 270.192 71.968 268.732 70.2857C267.272 68.6033 265.495 67.2251 263.502 66.2298C260.916 64.9368 258.043 64.3262 255.155 64.4561C252.267 64.586 249.46 65.4521 247.001 66.972C244.541 68.492 242.512 70.6154 241.104 73.1406C239.697 75.6658 238.958 78.5088 238.958 81.3998V84.7915" stroke="white" stroke-width="5" stroke-linecap="round" stroke-linejoin="round"/>
</svg>
