<svg width="370" height="370" viewBox="0 0 370 370" fill="none" xmlns="http://www.w3.org/2000/svg">
<path d="M77.0833 323.75C68.6042 323.75 61.3481 320.733 55.315 314.7C49.2819 308.667 46.2603 301.406 46.25 292.917V77.0833C46.25 68.6042 49.2717 61.3481 55.315 55.315C61.3583 49.2819 68.6144 46.2603 77.0833 46.25H292.917C301.396 46.25 308.657 49.2717 314.7 55.315C320.744 61.3583 323.76 68.6144 323.75 77.0833H200.417C182.174 77.0833 167.338 82.8029 155.909 94.2421C144.48 105.681 138.76 120.517 138.75 138.75V231.25C138.75 249.493 144.47 264.334 155.909 275.773C167.348 287.213 182.184 292.927 200.417 292.917H323.75C323.75 301.396 320.733 308.657 314.7 314.7C308.667 320.744 301.406 323.76 292.917 323.75H77.0833ZM200.417 262.083C191.937 262.083 184.681 259.067 178.648 253.034C172.615 247.001 169.594 239.739 169.583 231.25V138.75C169.583 130.271 172.605 123.015 178.648 116.982C184.692 110.949 191.948 107.927 200.417 107.917H308.333C316.812 107.917 324.074 110.938 330.117 116.982C336.16 123.025 339.177 130.281 339.167 138.75V231.25C339.167 239.729 336.15 246.99 330.117 253.034C324.084 259.077 316.823 262.094 308.333 262.083H200.417ZM246.667 208.125C253.347 208.125 258.872 205.941 263.24 201.573C267.608 197.205 269.792 191.681 269.792 185C269.792 178.319 267.608 172.795 263.24 168.427C258.872 164.059 253.347 161.875 246.667 161.875C239.986 161.875 234.462 164.059 230.094 168.427C225.726 172.795 223.542 178.319 223.542 185C223.542 191.681 225.726 197.205 230.094 201.573C234.462 205.941 239.986 208.125 246.667 208.125Z" fill="white"/>
</svg>
