<svg width="60" height="60" viewBox="0 0 60 60" fill="none" xmlns="http://www.w3.org/2000/svg">
<path d="M30.5 42.97C30.2717 42.97 30.0942 42.9033 29.9675 42.77C29.8392 42.635 29.7367 42.4725 29.66 42.2825C29.1333 40.9525 28.5283 39.8025 27.845 38.8325C27.1617 37.8642 26.4783 36.93 25.795 36.03C24.9283 34.8817 24.1658 33.7242 23.5075 32.5575C22.8492 31.3908 22.52 29.9425 22.52 28.2125C22.52 26.0075 23.2992 24.1258 24.8575 22.5675C26.4142 21.0092 28.295 20.23 30.5 20.23C32.705 20.23 34.5858 21.0092 36.1425 22.5675C37.7008 24.1258 38.48 26.0075 38.48 28.2125C38.48 29.9425 38.1508 31.3908 37.4925 32.5575C36.8342 33.7242 36.0725 34.8817 35.2075 36.03C34.5242 36.93 33.8408 37.865 33.1575 38.835C32.4725 39.8033 31.87 40.9542 31.35 42.2875C31.2667 42.5058 31.1608 42.6742 31.0325 42.7925C30.9058 42.9108 30.7283 42.97 30.5 42.97ZM30.5 38.905C31.1317 37.905 31.675 37.0983 32.13 36.485C32.585 35.8733 32.9792 35.3383 33.3125 34.88C34.3342 33.565 35.0825 32.4592 35.5575 31.5625C36.0325 30.6658 36.27 29.5492 36.27 28.2125C36.27 26.6258 35.705 25.2675 34.575 24.1375C33.445 23.0075 32.0867 22.4425 30.5 22.4425C28.9133 22.4425 27.555 23.0075 26.425 24.1375C25.295 25.2675 24.73 26.6258 24.73 28.2125C24.73 29.5492 24.9675 30.6658 25.4425 31.5625C25.9175 32.4592 26.6658 33.565 27.6875 34.88C28.1808 35.53 28.6633 36.185 29.135 36.845C29.6067 37.5067 30.0617 38.1933 30.5 38.905ZM30.5075 30.855C31.2492 30.855 31.8742 30.5992 32.3825 30.0875C32.8908 29.5742 33.145 28.9467 33.145 28.205C33.145 27.4633 32.8883 26.8383 32.375 26.33C31.8617 25.8217 31.2342 25.5675 30.4925 25.5675C29.7508 25.5675 29.1258 25.8233 28.6175 26.335C28.1092 26.8483 27.855 27.4758 27.855 28.2175C27.855 28.9608 28.1117 29.5858 28.625 30.0925C29.1383 30.5992 29.7658 30.8533 30.5075 30.855ZM30.5 51C24.945 51 20.2225 49.0558 16.3325 45.1675C12.4442 41.2808 10.5 36.5608 10.5 31.0075C10.5 28.2308 11.0217 25.63 12.065 23.205C13.1083 20.78 14.5358 18.6608 16.3475 16.8475C18.1608 15.0358 20.2792 13.6083 22.7025 12.565C25.1242 11.5217 27.7225 11 30.4975 11C33.2708 11 35.8708 11.5217 38.2975 12.565C40.7208 13.6083 42.8392 15.0358 44.6525 16.8475C46.4642 18.6608 47.8917 20.7792 48.935 23.2025C49.9783 25.6258 50.5 28.225 50.5 31V34.53L55.5925 29.375L57.375 31.095L49.25 39.22L41.125 31.095L42.9075 29.375L48 34.4675V31C48 26.1667 46.2917 22.0417 42.875 18.625C39.4583 15.2083 35.3333 13.5 30.5 13.5C25.6667 13.5 21.5417 15.2083 18.125 18.625C14.7083 22.0417 13 26.1667 13 31C13.01 35.8667 14.7125 40 18.1075 43.4C21.5042 46.8 25.635 48.5 30.5 48.5C32.8433 48.5 35 48.0842 36.97 47.2525C38.9417 46.4192 40.7517 45.2642 42.4 43.7875L44.23 45.5725C42.3483 47.2842 40.2317 48.6167 37.88 49.57C35.5317 50.5233 33.0717 51 30.5 51Z" fill="white"/>
</svg>
