<svg width="663" height="691" viewBox="0 0 663 691" fill="none" xmlns="http://www.w3.org/2000/svg">
<g id="optimized - progressBar">
<g id="houseCards">
<g id="shake">
<circle id="Ellipse 39" cx="316.315" cy="126.315" r="78.815" fill="white" stroke="#70AD40" stroke-width="5"/>
<g id="pepicons-print:handshake">
<g id="Group">
<g id="Group_2" opacity="0.2">
<path id="Vector" fill-rule="evenodd" clip-rule="evenodd" d="M288.724 98.4848C287.567 97.9645 286.252 97.9246 285.066 98.374C283.88 98.8234 282.922 99.7252 282.4 100.881L272.437 122.999C271.916 124.155 271.876 125.47 272.324 126.656C272.773 127.841 273.673 128.8 274.829 129.322L281.525 132.336C282.098 132.594 282.715 132.738 283.343 132.757C283.971 132.777 284.597 132.673 285.185 132.451C285.772 132.229 286.31 131.893 286.768 131.463C287.226 131.033 287.595 130.517 287.853 129.944L297.812 107.831C298.332 106.675 298.372 105.359 297.923 104.173C297.473 102.988 296.572 102.029 295.416 101.508L288.724 98.4848ZM280.353 126.012C280.735 126.2 281.15 126.309 281.575 126.333C282 126.357 282.425 126.296 282.826 126.152C283.226 126.008 283.593 125.785 283.906 125.496C284.218 125.208 284.47 124.859 284.645 124.471C284.819 124.083 284.915 123.664 284.924 123.239C284.934 122.814 284.858 122.391 284.701 121.996C284.544 121.6 284.308 121.241 284.009 120.938C283.71 120.635 283.354 120.396 282.96 120.234C282.199 119.921 281.347 119.916 280.582 120.22C279.818 120.524 279.201 121.113 278.863 121.863C278.525 122.613 278.491 123.465 278.769 124.239C279.047 125.013 279.615 125.649 280.353 126.012ZM359.994 129.92C360.581 129.697 361.119 129.361 361.576 128.93C362.034 128.499 362.402 127.983 362.659 127.41C362.917 126.837 363.059 126.219 363.078 125.591C363.097 124.963 362.991 124.337 362.768 123.75L354.178 101.077C353.728 99.8914 352.826 98.9324 351.67 98.4113C350.514 97.8901 349.198 97.8495 348.012 98.2983L341.148 100.9C340.56 101.123 340.022 101.459 339.564 101.889C339.106 102.32 338.738 102.837 338.48 103.41C338.222 103.983 338.079 104.601 338.06 105.229C338.041 105.857 338.146 106.483 338.369 107.071L346.96 129.743C347.182 130.331 347.518 130.869 347.949 131.327C348.379 131.785 348.896 132.153 349.469 132.411C350.042 132.67 350.66 132.812 351.289 132.831C351.917 132.85 352.543 132.745 353.13 132.522L359.994 129.92ZM346.453 104.54C345.666 104.839 345.03 105.437 344.685 106.204C344.34 106.971 344.313 107.844 344.611 108.63C344.909 109.417 345.508 110.052 346.275 110.398C347.042 110.743 347.914 110.77 348.701 110.472C349.09 110.324 349.447 110.101 349.75 109.816C350.053 109.53 350.298 109.188 350.469 108.808C350.64 108.428 350.734 108.019 350.747 107.602C350.759 107.186 350.69 106.771 350.542 106.382C350.395 105.992 350.172 105.636 349.886 105.333C349.601 105.029 349.259 104.785 348.879 104.614C348.499 104.443 348.089 104.349 347.673 104.336C347.257 104.323 346.842 104.393 346.453 104.54Z" fill="#70AD40"/>
<path id="Vector_2" fill-rule="evenodd" clip-rule="evenodd" d="M340.942 106.018H340.904L340.794 106.028L340.364 106.066L338.766 106.224C337.412 106.368 335.547 106.573 333.49 106.846C329.31 107.401 324.56 108.195 321.666 109.156C320.714 109.477 319.456 110.189 317.954 111.285C316.337 112.491 314.791 113.789 313.324 115.173C310.484 117.852 307.771 120.661 305.193 123.592C304.499 124.372 304.619 125.194 305.011 125.615C306.25 126.945 307.881 128.265 309.717 128.806C311.401 129.298 313.487 129.222 316.036 127.309L316.103 127.261L320.862 124.19C321.862 123.539 323.713 122.784 325.598 123.826C327.688 124.984 330.826 127.787 333.237 130.059C334.649 131.393 336.038 132.752 337.403 134.134C337.704 134.182 338.226 134.158 339.067 133.871C340.351 133.39 341.569 132.75 342.693 131.967C344.251 130.923 345.727 129.76 347.108 128.49L347.165 128.433L347.18 128.418M334.37 137.87L334.652 138.157L335.011 138.343C336.91 139.291 338.991 138.946 340.598 138.406C342.277 137.792 343.872 136.968 345.343 135.952C347.113 134.766 348.789 133.445 350.356 132.001L350.437 131.92L350.461 131.9L350.471 131.891L348.83 130.155L350.475 131.886C350.703 131.67 350.886 131.411 351.014 131.124C351.141 130.836 351.211 130.527 351.219 130.213C351.227 129.899 351.173 129.587 351.06 129.293C350.947 129 350.778 128.732 350.562 128.504C350.345 128.277 350.086 128.094 349.799 127.966C349.512 127.839 349.203 127.769 348.888 127.761C348.574 127.753 348.262 127.807 347.969 127.92C347.676 128.032 347.407 128.202 347.18 128.418M334.37 137.87L334.346 137.851L334.284 137.784L334.026 137.521C332.692 136.17 331.335 134.844 329.955 133.541C327.573 131.293 325.043 129.083 323.536 128.16C323.509 128.175 323.481 128.191 323.455 128.208L318.834 131.188C315.142 133.929 311.521 134.321 308.369 133.393C305.346 132.503 303.011 130.485 301.509 128.873C299.132 126.318 299.601 122.688 301.605 120.425C304.288 117.378 307.111 114.457 310.067 111.672C311.671 110.156 313.364 108.736 315.137 107.42C316.782 106.219 318.514 105.172 320.155 104.622C323.531 103.493 328.702 102.661 332.864 102.106C335.21 101.797 337.562 101.53 339.919 101.307L340.368 101.264L340.488 101.254L340.526 101.249C341.151 101.208 341.767 101.412 342.242 101.82C342.717 102.227 343.014 102.804 343.068 103.428C343.123 104.051 342.931 104.671 342.533 105.155C342.136 105.638 341.565 105.951 340.942 106.018" fill="#70AD40"/>
<path id="Vector_3" fill-rule="evenodd" clip-rule="evenodd" d="M295.148 110.486L294.205 108.286L293.263 106.086L293.454 106.009L293.981 105.784C296.561 104.691 299.152 103.623 301.753 102.579C303.944 101.699 306.23 100.81 308.134 100.14C309.081 99.8052 309.957 99.5182 310.693 99.3078C311.329 99.126 312.142 98.9155 312.817 98.9155C313.429 98.9155 314.075 99.059 314.601 99.1977C315.175 99.346 315.797 99.5565 316.433 99.7861C317.71 100.25 319.15 100.858 320.48 101.446C322.033 102.139 323.574 102.861 325.1 103.613L325.406 103.766L325.488 103.804L325.516 103.818C326.079 104.104 326.506 104.601 326.704 105.2C326.902 105.799 326.855 106.452 326.574 107.017C326.292 107.582 325.799 108.013 325.201 108.216C324.604 108.418 323.95 108.376 323.383 108.099L323.359 108.085L323.283 108.052L322.996 107.908C321.523 107.184 320.037 106.487 318.538 105.818C317.246 105.244 315.926 104.689 314.802 104.282C314.33 104.107 313.852 103.953 313.367 103.818C313.193 103.768 313.015 103.728 312.836 103.699L312.793 103.708C312.697 103.727 312.458 103.775 312.009 103.904C311.406 104.077 310.631 104.335 309.722 104.651C307.919 105.292 305.699 106.148 303.528 107.018C300.956 108.049 298.396 109.106 295.846 110.19L295.329 110.41L295.148 110.486ZM292.01 109.228C291.886 108.94 291.82 108.629 291.815 108.315C291.811 108.001 291.869 107.689 291.985 107.397C292.102 107.105 292.274 106.839 292.494 106.614C292.713 106.389 292.974 106.21 293.263 106.086L294.205 108.286L295.148 110.486C294.565 110.735 293.907 110.742 293.318 110.507C292.73 110.271 292.259 109.811 292.01 109.228ZM283.161 127.581C283.377 127.353 283.635 127.169 283.922 127.041C284.209 126.913 284.518 126.842 284.832 126.833C285.146 126.824 285.459 126.877 285.752 126.989C286.046 127.101 286.314 127.27 286.543 127.486L284.902 129.222L283.256 130.963C283.028 130.747 282.844 130.489 282.716 130.202C282.588 129.915 282.517 129.606 282.508 129.292C282.499 128.978 282.552 128.665 282.664 128.372C282.776 128.078 282.945 127.81 283.161 127.581ZM304.504 143.328L317.194 148.087C318.484 148.571 319.887 148.674 321.234 148.382C322.581 148.09 323.815 147.417 324.789 146.442L334.394 136.837C334.843 136.389 335.452 136.137 336.087 136.137C336.721 136.138 337.33 136.39 337.778 136.839C338.227 137.288 338.478 137.897 338.478 138.532C338.477 139.167 338.225 139.775 337.776 140.224L328.171 149.824C326.547 151.447 324.49 152.569 322.246 153.055C320.002 153.541 317.665 153.371 315.515 152.564L302.552 147.705L302.442 147.647C301.726 147.253 301.046 146.797 300.409 146.284C299.529 145.599 298.665 144.894 297.817 144.17C295.903 142.543 293.646 140.534 291.493 138.588C288.955 136.282 286.438 133.954 283.941 131.604L283.438 131.131L283.256 130.963L284.902 129.222L286.543 127.486L286.72 127.648L287.217 128.122C289.693 130.451 292.19 132.758 294.708 135.043C296.846 136.981 299.06 138.951 300.907 140.52C301.835 141.305 302.657 141.979 303.327 142.491C303.934 142.96 304.317 143.218 304.504 143.328ZM286.825 151.746C287.228 151.264 287.722 150.866 288.278 150.575C288.835 150.283 289.444 150.105 290.07 150.049C290.696 149.993 291.326 150.061 291.926 150.248C292.526 150.436 293.082 150.741 293.564 151.144L297.965 154.822C298.65 155.395 299.482 155.764 300.366 155.889L306.049 156.683C306.671 156.77 307.27 156.979 307.811 157.298C308.352 157.617 308.826 158.039 309.204 158.54C309.582 159.042 309.858 159.613 310.015 160.222C310.173 160.83 310.209 161.463 310.122 162.085C310.034 162.708 309.825 163.306 309.506 163.848C309.188 164.389 308.765 164.863 308.264 165.241C307.762 165.619 307.191 165.895 306.583 166.052C305.974 166.209 305.341 166.246 304.719 166.158L299.036 165.359C296.384 164.988 293.889 163.881 291.833 162.164L287.432 158.486C286.459 157.673 285.848 156.507 285.734 155.244C285.62 153.981 286.013 152.725 286.825 151.751" fill="#70AD40"/>
<path id="Vector_4" d="M292.469 108.094L304.102 103.436H315.735L338.407 105.956L343.061 117.584L347.716 129.217L338.407 136.201L322.125 150.158L304.102 146.102L294.205 138.525L284.902 129.217L292.469 108.094Z" fill="#70AD40"/>
</g>
<path id="Vector_5" fill-rule="evenodd" clip-rule="evenodd" d="M286.241 90.7122C285.084 90.1922 283.768 90.153 282.582 90.6033C281.396 91.0536 280.438 91.9565 279.918 93.1134L269.572 116.087C269.051 117.243 269.011 118.558 269.459 119.744C269.907 120.93 270.808 121.889 271.963 122.411L279.09 125.62C279.663 125.879 280.281 126.022 280.909 126.042C281.537 126.061 282.162 125.957 282.75 125.735C283.337 125.513 283.876 125.177 284.334 124.747C284.791 124.317 285.16 123.801 285.419 123.229L295.765 100.25C296.285 99.0942 296.326 97.779 295.877 96.5933C295.429 95.4077 294.528 94.4485 293.373 93.9265L286.241 90.7122ZM277.761 119.067C278.151 119.243 278.572 119.34 278.999 119.354C279.427 119.367 279.853 119.296 280.253 119.144C280.653 118.993 281.02 118.764 281.332 118.471C281.643 118.178 281.894 117.826 282.07 117.436C282.246 117.046 282.344 116.625 282.357 116.197C282.37 115.77 282.299 115.344 282.147 114.943C281.996 114.543 281.767 114.177 281.474 113.865C281.181 113.553 280.829 113.302 280.439 113.126C279.651 112.771 278.755 112.744 277.947 113.049C277.138 113.355 276.485 113.97 276.13 114.758C275.774 115.545 275.747 116.442 276.052 117.25C276.358 118.058 276.973 118.712 277.761 119.067ZM359.755 123.037C360.342 122.814 360.88 122.478 361.337 122.047C361.795 121.616 362.162 121.1 362.42 120.527C362.678 119.954 362.82 119.336 362.839 118.708C362.857 118.08 362.752 117.454 362.529 116.867L353.608 93.3143C353.386 92.7265 353.05 92.1883 352.619 91.7305C352.189 91.2726 351.672 90.9041 351.099 90.6461C350.526 90.388 349.908 90.2453 349.28 90.2263C348.651 90.2073 348.026 90.3123 347.438 90.5352L340.134 93.3047C339.547 93.5276 339.009 93.8641 338.552 94.2948C338.094 94.7256 337.726 95.2422 337.469 95.8152C337.211 96.3882 337.069 97.0063 337.05 97.6343C337.031 98.2623 337.137 98.8878 337.36 99.4751L346.285 123.033C346.735 124.218 347.636 125.177 348.793 125.699C349.949 126.22 351.265 126.26 352.451 125.812L359.755 123.037ZM345.706 96.9926C345.306 97.1443 344.94 97.3733 344.628 97.6666C344.317 97.9598 344.066 98.3116 343.89 98.7018C343.715 99.092 343.618 99.513 343.605 99.9407C343.592 100.368 343.663 100.795 343.815 101.195C343.966 101.595 344.195 101.961 344.489 102.273C344.782 102.584 345.134 102.835 345.524 103.011C345.914 103.186 346.335 103.284 346.763 103.297C347.191 103.31 347.617 103.238 348.017 103.086C348.825 102.78 349.478 102.165 349.833 101.377C350.188 100.589 350.215 99.6924 349.909 98.8843C349.602 98.0762 348.987 97.423 348.199 97.0682C347.411 96.7134 346.515 96.6862 345.706 96.9926Z" fill="#70AD40"/>
<path id="Vector_6" fill-rule="evenodd" clip-rule="evenodd" d="M340 98.4469H340.038C340.351 98.4196 340.656 98.3308 340.935 98.1858C341.214 98.0407 341.461 97.8421 341.663 97.6014C341.866 97.3606 342.018 97.0825 342.113 96.7827C342.207 96.483 342.242 96.1675 342.215 95.8544C342.187 95.5413 342.099 95.2366 341.954 94.9577C341.809 94.6789 341.61 94.4314 341.369 94.2293C341.128 94.0272 340.85 93.8745 340.551 93.7799C340.251 93.6853 339.935 93.6507 339.622 93.678H339.584L339.46 93.6924L338.996 93.7402C336.574 93.9703 334.156 94.2446 331.744 94.5629C327.468 95.1225 322.163 95.9835 318.696 97.1411C317.007 97.7007 315.228 98.7865 313.53 100.03C311.701 101.39 309.953 102.856 308.297 104.421C305.258 107.288 302.355 110.295 299.596 113.433C297.592 115.7 297.128 119.316 299.481 121.88C301.012 123.535 303.404 125.63 306.503 126.568C309.741 127.539 313.472 127.161 317.284 124.329L322.063 121.244C322.091 121.225 322.12 121.208 322.149 121.191C322.833 121.607 323.785 122.325 324.923 123.277C326.167 124.319 327.516 125.549 328.774 126.73C330.201 128.076 331.605 129.448 332.983 130.844L333.246 131.116L333.313 131.183L333.337 131.207L333.619 131.494L333.978 131.681C335.906 132.637 338.025 132.293 339.67 131.738C341.382 131.164 343.085 130.188 344.535 129.227C346.35 128.008 348.07 126.65 349.677 125.166L349.763 125.09L349.787 125.066L349.791 125.061C349.791 125.061 349.37 123.578 347.725 121.846L346.429 123.473L345.333 126.634L333.337 131.207L335.767 129.026L334.485 125.597C333.683 124.807 332.873 124.026 332.055 123.253C330.764 122.038 329.338 120.742 327.989 119.617C326.684 118.517 325.325 117.475 324.191 116.853C322.307 115.82 320.461 116.585 319.466 117.231L314.548 120.407L314.482 120.455C311.827 122.444 309.646 122.521 307.881 121.99C305.967 121.416 304.269 120.019 303.002 118.642C302.605 118.211 302.49 117.384 303.179 116.604C305.835 113.582 308.629 110.685 311.554 107.922C313.185 106.406 314.821 105.005 316.347 103.89C317.906 102.752 319.217 102.01 320.207 101.68C323.192 100.685 328.075 99.8675 332.376 99.2983C334.727 98.9892 337.084 98.7229 339.445 98.4995L339.89 98.4565L340 98.4469Z" fill="#70AD40"/>
<path id="Vector_7" d="M336.374 127.481C335.75 126.848 335.12 126.219 334.485 125.596L335.767 129.026L333.337 131.212L345.333 126.634L346.429 123.477L347.725 121.851L346.505 121.593L346.491 121.602L346.424 121.665L346.166 121.904C344.818 123.116 343.387 124.233 341.885 125.247C340.593 126.108 339.287 126.826 338.139 127.208C337.25 127.51 336.695 127.534 336.374 127.481Z" fill="#70AD40"/>
<path id="Vector_8" fill-rule="evenodd" clip-rule="evenodd" d="M292.943 103.043L292 100.843L291.058 98.6425L291.249 98.566L291.79 98.3364C294.442 97.2103 297.104 96.1101 299.778 95.036C301.949 94.1595 304.137 93.3255 306.34 92.5344C307.311 92.19 308.215 91.8934 308.971 91.6782C309.622 91.4868 310.454 91.2764 311.133 91.2764C311.755 91.2764 312.41 91.4199 312.951 91.5634C313.534 91.7212 314.175 91.9317 314.826 92.1708C316.136 92.6492 317.614 93.271 318.982 93.8737C320.578 94.5868 322.16 95.3299 323.727 96.1027L324.043 96.2557L324.129 96.2988L324.158 96.3131C324.726 96.5966 325.157 97.0941 325.358 97.696C325.559 98.2979 325.513 98.955 325.229 99.5227C324.946 100.09 324.448 100.522 323.847 100.723C323.245 100.924 322.588 100.878 322.02 100.594L321.996 100.58L321.919 100.541L321.623 100.398C320.107 99.6525 318.578 98.9348 317.036 98.2455C315.773 97.6772 314.492 97.1507 313.195 96.6671C312.709 96.4868 312.216 96.3272 311.717 96.1887C311.53 96.1349 311.34 96.0933 311.148 96.0644L311.104 96.074C311.009 96.0883 310.755 96.1409 310.282 96.2748C309.49 96.5087 308.705 96.7655 307.928 97.0449C306.073 97.7003 303.791 98.5852 301.557 99.4796C298.914 100.538 296.281 101.624 293.66 102.737L293.129 102.962L292.943 103.043ZM289.8 101.785C289.551 101.202 289.544 100.544 289.78 99.9559C290.015 99.3675 290.475 98.8969 291.058 98.6473L292 100.848L292.943 103.043C292.654 103.167 292.343 103.233 292.029 103.237C291.714 103.241 291.402 103.183 291.11 103.066C290.819 102.949 290.553 102.776 290.328 102.556C290.103 102.336 289.923 102.074 289.8 101.785ZM280.697 120.727C280.913 120.498 281.172 120.315 281.459 120.186C281.745 120.058 282.054 119.987 282.369 119.978C282.683 119.969 282.995 120.022 283.289 120.134C283.582 120.247 283.851 120.415 284.079 120.631L282.434 122.367L280.793 124.108C280.565 123.893 280.381 123.634 280.253 123.347C280.124 123.061 280.054 122.751 280.045 122.437C280.036 122.123 280.089 121.811 280.201 121.517C280.313 121.224 280.482 120.955 280.697 120.727ZM302.557 136.928L315.773 141.883C317.063 142.366 318.464 142.468 319.81 142.176C321.156 141.885 322.39 141.212 323.364 140.238L333.361 130.241C333.81 129.792 334.419 129.54 335.053 129.541C335.688 129.541 336.297 129.794 336.745 130.243C337.193 130.692 337.445 131.301 337.445 131.936C337.444 132.57 337.192 133.179 336.743 133.627L326.746 143.624C325.122 145.246 323.065 146.367 320.822 146.852C318.579 147.337 316.243 147.166 314.094 146.36L300.605 141.304L300.495 141.252C299.764 140.847 299.069 140.38 298.419 139.855C297.644 139.257 296.736 138.516 295.755 137.679C293.559 135.802 291.394 133.89 289.259 131.943C286.651 129.574 284.063 127.182 281.496 124.769L280.975 124.281L280.793 124.108L282.434 122.367L284.079 120.631L284.256 120.798L284.768 121.282C287.315 123.675 289.882 126.048 292.469 128.399C294.669 130.394 296.941 132.417 298.845 134.034C299.802 134.842 300.648 135.531 301.332 136.062C301.964 136.545 302.361 136.813 302.557 136.923M286.356 147.145C286.763 146.66 287.345 146.356 287.975 146.299C288.605 146.243 289.232 146.438 289.719 146.843L294.306 150.67C295.334 151.528 296.581 152.081 297.908 152.267L303.82 153.1C304.138 153.135 304.445 153.233 304.725 153.389C305.004 153.545 305.249 153.755 305.446 154.008C305.643 154.26 305.786 154.55 305.869 154.859C305.952 155.168 305.972 155.49 305.928 155.807C305.883 156.124 305.776 156.429 305.612 156.704C305.448 156.978 305.23 157.217 304.972 157.406C304.714 157.595 304.421 157.731 304.109 157.804C303.798 157.878 303.475 157.889 303.16 157.835L297.243 157.008C295.032 156.697 292.953 155.774 291.24 154.343L286.653 150.517C286.411 150.315 286.212 150.068 286.066 149.79C285.92 149.511 285.831 149.206 285.803 148.893C285.775 148.58 285.809 148.264 285.903 147.964C285.997 147.664 286.149 147.386 286.351 147.145" fill="#70AD40"/>
</g>
</g>
</g>
<g id="safetry">
<circle id="Ellipse 41" cx="541.315" cy="501.315" r="78.8145" fill="white" stroke="#70AD40" stroke-width="5"/>
<g id="codicon:workspace-trusted" clip-path="url(#clip0_1512_47)">
<g id="Group_3">
<path id="Vector_9" d="M542.13 453.647C543.704 453.647 545.254 453.749 546.696 453.99C548.116 454.176 549.518 454.485 550.884 454.915C552.254 455.33 553.594 455.846 554.934 456.495C556.238 457.114 557.577 457.871 558.917 458.694C561.183 460.136 563.412 461.302 565.683 462.233C570.154 464.023 574.882 465.088 579.689 465.388C582.128 465.562 584.634 465.664 587.241 465.664V489.698C587.241 494.264 586.658 498.59 585.493 502.712C584.373 506.775 582.782 510.693 580.752 514.387C578.731 518.075 576.339 521.548 573.614 524.751C570.847 528.028 567.852 531.104 564.649 533.956C561.405 536.817 557.988 539.476 554.417 541.918C550.848 544.393 547.243 546.694 543.638 548.785L542.196 549.644L540.754 548.785C537.048 546.64 533.428 544.349 529.902 541.918C526.312 539.503 522.893 536.843 519.67 533.956C516.47 531.104 513.476 528.028 510.711 524.751C507.994 521.534 505.591 518.063 503.537 514.387C501.542 510.677 499.953 506.763 498.797 502.712C497.624 498.475 497.045 494.095 497.078 489.698V465.664C499.692 465.664 502.197 465.562 504.637 465.388C507.038 465.221 509.424 464.878 511.775 464.36C514.076 463.844 516.377 463.159 518.643 462.233C520.993 461.285 523.247 460.112 525.372 458.73C528.016 457.012 530.696 455.744 533.339 454.909C536.187 454.036 539.152 453.61 542.13 453.647ZM581.197 471.57C576.648 471.35 572.143 470.589 567.774 469.305C563.428 468.009 559.289 466.101 555.48 463.639C553.505 462.343 551.36 461.326 549.106 460.617C546.854 459.936 544.512 459.6 542.16 459.62C539.79 459.604 537.431 459.94 535.16 460.617C532.902 461.303 530.76 462.321 528.803 463.639C524.988 466.115 520.838 468.031 516.48 469.329C512.22 470.567 507.761 471.324 503.087 471.6V489.728C503.087 493.712 503.603 497.521 504.637 501.192C505.69 504.831 507.141 508.344 508.963 511.665C510.807 515.021 512.981 518.185 515.452 521.11C517.958 524.06 520.631 526.806 523.515 529.414C526.4 532.028 529.422 534.431 532.582 536.66C535.773 538.895 538.969 540.92 542.16 542.771C545.427 540.869 548.612 538.83 551.707 536.66C554.888 534.438 557.927 532.018 560.804 529.414C563.688 526.806 566.368 524.06 568.873 521.11C571.345 518.185 573.518 515.021 575.362 511.665C577.177 508.348 578.606 504.834 579.622 501.192C580.687 497.465 581.217 493.605 581.197 489.728V471.57Z" fill="#70AD40"/>
<path id="Vector_10" fill-rule="evenodd" clip-rule="evenodd" d="M564.529 481.941L561.886 479.67L559.446 479.88L533.249 510.812L524.327 498.074L521.923 497.665L519.141 499.654L518.727 502.057L530.197 518.437L531.501 519.158L534.247 519.326L535.653 518.713L564.704 484.375L564.529 481.941Z" fill="#70AD40"/>
</g>
</g>
</g>
<g id="report">
<circle id="Ellipse 40" cx="107.315" cy="501.315" r="78.8145" fill="white" stroke="#70AD40" stroke-width="5"/>
<g id="material-symbols:stacks-rounded">
<path id="Vector_11" d="M106.83 508.706C106.166 508.706 105.517 508.623 104.885 508.459C104.252 508.294 103.639 508.044 103.043 507.709L69.3631 489.374C68.6323 488.976 68.1168 488.478 67.8166 487.88C67.5163 487.282 67.3675 486.618 67.3702 485.887C67.3702 485.156 67.5203 484.492 67.8206 483.894C68.1208 483.296 68.635 482.798 69.3631 482.399L103.043 464.064C103.641 463.732 104.256 463.482 104.889 463.315C105.521 463.148 106.168 463.065 106.83 463.068C107.494 463.068 108.143 463.152 108.775 463.319C109.407 463.486 110.021 463.735 110.616 464.064L144.297 482.399C145.027 482.798 145.543 483.296 145.843 483.894C146.144 484.492 146.292 485.156 146.29 485.887C146.29 486.618 146.141 487.282 145.843 487.88C145.546 488.478 145.03 488.976 144.297 489.374L110.616 507.709C110.019 508.041 109.405 508.291 108.775 508.459C108.145 508.626 107.497 508.708 106.83 508.706ZM106.83 516.677L138.119 499.638C138.252 499.572 138.883 499.405 140.012 499.14C141.141 499.14 142.089 499.522 142.854 500.288C143.619 501.053 144 501.999 143.998 503.126C143.998 503.856 143.832 504.521 143.5 505.118C143.167 505.716 142.636 506.215 141.905 506.613L110.616 523.653C110.019 523.985 109.405 524.235 108.775 524.402C108.145 524.569 107.497 524.652 106.83 524.649C106.166 524.649 105.517 524.567 104.885 524.402C104.252 524.237 103.639 523.987 103.043 523.653L71.7546 506.613C71.0238 506.215 70.4924 505.716 70.1602 505.118C69.8281 504.521 69.662 503.856 69.662 503.126C69.662 501.996 70.0446 501.05 70.8099 500.288C71.5752 499.525 72.5212 499.142 73.6478 499.14C73.98 499.14 74.2962 499.19 74.5965 499.291C74.8967 499.392 75.2116 499.508 75.5411 499.638L106.83 516.677ZM106.83 532.621L138.119 515.581C138.252 515.515 138.883 515.349 140.012 515.083C141.141 515.083 142.089 515.466 142.854 516.231C143.619 516.996 144 517.942 143.998 519.069C143.998 519.8 143.832 520.464 143.5 521.062C143.167 521.66 142.636 522.158 141.905 522.557L110.616 539.596C110.019 539.928 109.405 540.178 108.775 540.345C108.145 540.513 107.497 540.595 106.83 540.592C106.166 540.592 105.517 540.51 104.885 540.345C104.252 540.181 103.639 539.931 103.043 539.596L71.7546 522.557C71.0238 522.158 70.4924 521.66 70.1602 521.062C69.8281 520.464 69.662 519.8 69.662 519.069C69.662 517.94 70.0446 516.994 70.8099 516.231C71.5752 515.468 72.5212 515.086 73.6478 515.083C73.98 515.083 74.2962 515.134 74.5965 515.235C74.8967 515.335 75.2116 515.451 75.5411 515.581L106.83 532.621Z" fill="#70AD40"/>
</g>
</g>
</g>
<g id="progressBar">
<path id="Vector 40" d="M481 187C515.559 209.904 583.619 280.837 579.391 381.342" stroke="#C4C4C4" stroke-width="15" stroke-linecap="round"/>
<path id="Vector 42" d="M58.3811 381.351C56.3696 339.94 73.2184 243.09 156.706 186.976" stroke="#C4C4C4" stroke-width="15" stroke-linecap="round"/>
<path id="Vector 41" d="M423.911 590.902C387.951 611.535 294.041 640.598 206.084 591.786" stroke="#C4C4C4" stroke-width="15" stroke-linecap="round"/>
</g>
</g>
<defs>
<clipPath id="clip0_1512_47">
<rect width="96.1354" height="96.1354" fill="white" transform="translate(493.647 453.647)"/>
</clipPath>
</defs>
</svg>
